PERFORMER "Paul Woolford"
TITLE "Essential Mix (2005-10-02)"
FILE "Paul Woolford- Essential Mix 2-10-05" MP3
  TRACK 01 AUDIO
    PERFORMER "Essential Mix"
    TITLE "Intro"
    INDEX 01 00:00:00
  TRACK 02 AUDIO
    PERFORMER "Paul Woolford pres. Bobby Peru"
    TITLE "Heart"
    INDEX 01 01:15:00
  TRACK 03 AUDIO
    PERFORMER "Tiefschwarz "
    TITLE "Warning Siren (Buick Project Mix)"
    INDEX 01 06:00:00
  TRACK 04 AUDIO
    PERFORMER "Jon Gurd"
    TITLE "Lemon Sherbert"
    INDEX 01 11:20:00
  TRACK 05 AUDIO
    PERFORMER "Hell"
    TITLE "Follow Me (Dominik Eulberg Remix)"
    INDEX 01 18:15:00
  TRACK 06 AUDIO
    PERFORMER "Argy"
    TITLE "Lovedose (Luciano Remix)"
    INDEX 01 24:00:00
  TRACK 07 AUDIO
    PERFORMER "Repeat Repeat "
    TITLE "Bounce Your Body To The Box"
    INDEX 01 26:30:00
  TRACK 08 AUDIO
    PERFORMER "Cycle Repair & Inflight"
    TITLE "Let It All Blow"
    INDEX 01 30:20:00
  TRACK 09 AUDIO
    PERFORMER "Zoo Brazil vs. Decomposed "
    TITLE "My Own Personal Jesus vs. Decomposed"
    INDEX 01 34:15:00
  TRACK 10 AUDIO
    PERFORMER "The Rapture"
    TITLE "I Need Your Love"
    INDEX 01 36:20:00
  TRACK 11 AUDIO
    PERFORMER "Chemical Brothers"
    TITLE "The Golden Path"
    INDEX 01 40:30:00
  TRACK 12 AUDIO
    PERFORMER "Kraftwerk"
    TITLE "Numbers"
    INDEX 01 46:30:00
  TRACK 13 AUDIO
    PERFORMER "Tomass Anderson"
    TITLE "Washing Up (Tiga Remix)"
    INDEX 01 49:25:00
  TRACK 14 AUDIO
    PERFORMER "Laser FX"
    TITLE ""
    INDEX 01 52:35:00
  TRACK 15 AUDIO
    PERFORMER "Fischerspooner "
    TITLE "Just Let Go' (M.A.N.D.Y Mix)"
    INDEX 01 56:00:00
  TRACK 16 AUDIO
    PERFORMER "Art Of Tones"
    TITLE "Google Race"
    INDEX 01 61:20:00
  TRACK 17 AUDIO
    PERFORMER "Mr & Mrs Christmas"
    TITLE "Bang The Poll"
    INDEX 01 67:00:00
  TRACK 18 AUDIO
    PERFORMER "Williams"
    TITLE "Piccadilly Circuits"
    INDEX 01 73:50:00
  TRACK 19 AUDIO
    PERFORMER "The Juan Mclean"
    TITLE "Give Me Every Little Thing (Cajmere Mix)"
    INDEX 01 78:00:00
  TRACK 20 AUDIO
    PERFORMER "Jon Gurd"
    TITLE "Mind Control"
    INDEX 01 81:30:00
  TRACK 21 AUDIO
    PERFORMER "John Tejada"
    TITLE "Infected"
    INDEX 01 85:15:00
  TRACK 22 AUDIO
    PERFORMER "Cirez D"
    TITLE "Knockout"
    INDEX 01 87:15:00
  TRACK 23 AUDIO
    PERFORMER "Adam Beyer"
    TITLE "A Walking Contradiction 2"
    INDEX 01 90:30:00
  TRACK 24 AUDIO
    PERFORMER "Erotic Discourse"
    TITLE "Erotic Discourse"
    INDEX 01 94:45:00
  TRACK 25 AUDIO
    PERFORMER "Orbital"
    TITLE "Lush 3.1"
    INDEX 01 97:00:00
  TRACK 26 AUDIO
    PERFORMER "Booka Shade"
    TITLE "Mandarine Girl"
    INDEX 01 101:50:00
  TRACK 27 AUDIO
    PERFORMER "Agent 001"
    TITLE "Bubblebath (16B Remix 1)"
    INDEX 01 106:15:00
  TRACK 28 AUDIO
    PERFORMER "LCD Soundsystem"
    TITLE "Disco Infiltrator"
    INDEX 01 110:00:00
  TRACK 29 AUDIO
    PERFORMER "Gus Gus"
    TITLE "Lust"
    INDEX 01 116:10:00